HIERARCHY
ROOT SpineBase
{
  OFFSET 0.000000 0.000000 0.000000
  CHANNELS 6 Xposition Yposition Zposition Zrotation Xrotation Yrotation
  JOINT SpineMid
  {
    OFFSET 0.000000 25.389576 0.000000
    CHANNELS 3 Zrotation Xrotation Yrotation
    JOINT SpineShoulder
    {
      OFFSET -0.044862 18.936386 -0.580498
      CHANNELS 3 Zrotation Xrotation Yrotation
      JOINT Neck
      {
        OFFSET -0.025460 6.286556 -0.453707
        CHANNELS 3 Zrotation Xrotation Yrotation
        JOINT Head
        {
          OFFSET 2.043367 10.892209 -0.401166
          CHANNELS 3 Zrotation Xrotation Yrotation
          End Site
          {
            OFFSET 0 0 0
          }
        }
      }
      JOINT ShoulderLeft
      {
        OFFSET -12.456135 -2.128394 -7.321055
        CHANNELS 3 Zrotation Xrotation Yrotation
        JOINT ElbowLeft
        {
          OFFSET -3.384310 -18.395766 -3.854999
          CHANNELS 3 Zrotation Xrotation Yrotation
          JOINT WristLeft
          {
            OFFSET 21.658013 12.236625 -10.272260
            CHANNELS 3 Zrotation Xrotation Yrotation
            JOINT HandLeft
            {
              OFFSET 2.934892 1.613034 -1.050432
              CHANNELS 3 Zrotation Xrotation Yrotation
              JOINT HandTipLeft
              {
                OFFSET 4.986006 1.180353 2.375555
                CHANNELS 3 Zrotation Xrotation Yrotation
                End Site
                {
                  OFFSET 0 0 0
                }
              }
              JOINT ThumbLeft
              {
                OFFSET 0.003207 1.875655 -3.347021
                CHANNELS 3 Zrotation Xrotation Yrotation
                End Site
                {
                  OFFSET 0 0 0
                }
              }
            }
          }
        }
      }
      JOINT ShoulderRight
      {
        OFFSET 11.535596 -1.602781 4.899247
        CHANNELS 3 Zrotation Xrotation Yrotation
        JOINT ElbowRight
        {
          OFFSET 2.069679 -19.989775 -1.786766
          CHANNELS 3 Zrotation Xrotation Yrotation
          JOINT WristRight
          {
            OFFSET 2.097459 13.055515 -20.237431
            CHANNELS 3 Zrotation Xrotation Yrotation
            JOINT HandRight
            {
              OFFSET -2.383474 1.533160 -1.989730
              CHANNELS 3 Zrotation Xrotation Yrotation
              JOINT HandTipRight
              {
                OFFSET -4.244733 1.740317 -5.184807
                CHANNELS 3 Zrotation Xrotation Yrotation
                End Site
                {
                  OFFSET 0 0 0
                }
              }
              JOINT ThumbRight
              {
                OFFSET -4.603161 -0.086037 -5.258531
                CHANNELS 3 Zrotation Xrotation Yrotation
                End Site
                {
                  OFFSET 0 0 0
                }
              }
            }
          }
        }
      }
    }
  }
  JOINT HipLeft
  {
    OFFSET -5.131991 0.861951 -5.656878
    CHANNELS 3 Zrotation Xrotation Yrotation
    JOINT KneeLeft
    {
      OFFSET -5.976088 -34.311385 1.393105
      CHANNELS 3 Zrotation Xrotation Yrotation
      JOINT AnkleLeft
      {
        OFFSET -2.170443 -32.397249 8.572434
        CHANNELS 3 Zrotation Xrotation Yrotation
        JOINT FootLeft
        {
          OFFSET 4.764647 -6.873647 1.124391
          CHANNELS 3 Zrotation Xrotation Yrotation
          End Site
          {
            OFFSET 0 0 0
          }
        }
      }
    }
  }
  JOINT HipRight
  {
    OFFSET 4.892151 0.334425 -0.447453
    CHANNELS 3 Zrotation Xrotation Yrotation
    JOINT KneeRight
    {
      OFFSET -2.215274 -33.692220 4.354370
      CHANNELS 3 Zrotation Xrotation Yrotation
      JOINT AnkleRight
      {
        OFFSET -4.188004 -33.405283 7.582314
        CHANNELS 3 Zrotation Xrotation Yrotation
        JOINT FootRight
        {
          OFFSET 0.338042 -4.466454 -8.177847
          CHANNELS 3 Zrotation Xrotation Yrotation
          End Site
          {
            OFFSET 0 0 0
          }
        }
      }
    }
  }
}
MOTION
Frames: 13
Frame Time: 0.033333
14.824981 73.552433 371.724052 -0.000000 0.000000 -27.460354 -0.000000 0.000000 27.460354 -0.000000 0.000000 0.000000 -0.000000 0.000000 0.000000 0.000000 0.000000 0.000000 -0.000000 0.000000 0.000000 -0.000000 0.000000 0.000000 -0.000000 0.000000 0.000000 -0.000000 0.000000 0.000000 0.000000 0.000000 0.000000 0.000000 0.000000 0.000000 -0.000000 0.000000 0.000000 -0.000000 0.000000 0.000000 -0.000000 0.000000 0.000000 -0.000000 0.000000 0.000000 0.000000 0.000000 0.000000 0.000000 0.000000 0.000000 -0.000000 0.000000 27.460354 -0.000000 0.000000 0.000000 -0.000000 0.000000 0.000000 0.000000 0.000000 0.000000 -0.000000 0.000000 27.460354 -0.000000 0.000000 0.000000 -0.000000 0.000000 0.000000 0.000000 0.000000 0.000000
14.848325 73.514923 371.708948 0.048944 0.039098 -27.665740 -0.025194 -0.057353 27.665711 -0.000000 0.000000 0.000000 -0.000000 0.000000 0.000000 0.000000 0.000000 0.000000 -0.000000 0.000000 0.000000 0.902838 0.779029 -0.639633 1.227621 -2.847181 5.959509 2.171580 -1.405246 1.187448 0.000000 0.000000 0.000000 0.000000 0.000000 0.000000 -0.000000 0.000000 0.000000 -0.000000 0.000000 0.000000 1.313191 -0.890594 0.321019 -1.529349 0.617491 -1.634320 0.000000 0.000000 0.000000 0.000000 0.000000 0.000000 -0.025194 -0.057353 27.665711 -0.000000 0.000000 0.000000 0.730088 19.279194 13.743249 0.000000 0.000000 0.000000 -0.025194 -0.057353 27.665711 -0.000000 0.000000 0.000000 -0.632229 -1.221803 1.079876 0.000000 0.000000 0.000000
14.868695 73.477234 371.696205 0.088360 0.075887 -27.900022 -0.042580 -0.108413 27.899923 -0.000000 0.000000 0.000000 -0.000000 0.000000 0.000000 0.000000 0.000000 0.000000 0.378238 -0.865479 0.083002 1.255641 2.305117 -1.350471 1.872467 -4.542176 9.606972 4.867013 -3.476357 4.634754 0.000000 0.000000 0.000000 0.000000 0.000000 0.000000 -0.000000 0.000000 0.000000 -0.000000 0.000000 0.000000 2.731644 -2.034298 0.406952 -3.061823 1.340416 -3.016804 0.000000 0.000000 0.000000 0.000000 0.000000 0.000000 -0.042580 -0.108413 27.899923 -0.000000 0.000000 0.000000 -2.866501 35.419607 27.218121 0.000000 0.000000 0.000000 -0.042580 -0.108413 27.899923 -0.464842 0.647199 -0.184167 -0.289824 -2.380942 1.470141 0.000000 0.000000 0.000000
14.886092 73.439367 371.685825 0.118274 0.110373 -28.162887 -0.052178 -0.153128 28.162704 -0.000000 0.000000 0.000000 -0.000000 0.000000 0.000000 0.000000 0.000000 0.000000 0.478108 -1.056494 0.098854 1.683126 3.028465 -1.940957 2.229228 -5.583847 11.887734 7.539746 -5.420015 8.956916 0.000000 0.000000 0.000000 0.000000 0.000000 0.000000 -0.000000 0.000000 0.000000 -0.247260 1.044793 -0.556553 4.379635 -4.353088 0.825757 -4.403755 2.060997 -3.956166 0.000000 0.000000 0.000000 0.000000 0.000000 0.000000 -0.052178 -0.153128 28.162704 -0.000000 0.000000 0.000000 -8.396898 45.263050 38.494756 0.000000 0.000000 0.000000 -0.052178 -0.153128 28.162704 -0.562230 0.834591 -0.228392 0.176161 -2.338597 0.851099 0.000000 0.000000 0.000000
14.900515 73.401322 371.677807 0.138709 0.142560 -28.454012 -0.054030 -0.191426 28.453749 -0.000000 0.000000 0.000000 -0.000000 0.000000 0.000000 0.000000 0.000000 0.000000 0.527373 -1.108842 0.098873 1.932616 3.473647 -2.448829 2.466785 -6.168487 13.232092 9.837640 -6.924463 13.387485 0.000000 0.000000 0.000000 0.000000 0.000000 0.000000 -0.000000 0.000000 0.000000 -0.441528 1.401180 -0.921008 5.726461 -6.007582 0.717419 -5.347782 2.643323 -4.331958 0.000000 0.000000 0.000000 0.000000 0.000000 0.000000 -0.054030 -0.191426 28.453749 -0.793569 0.249332 -0.224987 -12.643295 50.153957 46.786014 0.000000 0.000000 0.000000 -0.054030 -0.191426 28.453749 -0.566986 0.927396 -0.240669 1.042363 -1.492841 -0.649630 0.000000 0.000000 0.000000
14.911965 73.363099 371.672151 0.149690 0.172454 -28.773058 -0.048199 -0.223213 28.772739 -0.000000 0.000000 0.000000 -0.727517 0.577735 -0.131378 0.000000 0.000000 0.000000 0.529341 -1.029860 0.083527 1.977735 3.638335 -2.858806 2.679796 -6.371724 13.835848 11.560589 -7.946197 17.543781 0.000000 0.000000 0.000000 0.000000 0.000000 0.000000 0.316580 -0.774634 -0.106395 -1.012964 2.538077 -1.255721 6.757432 -7.514309 0.451008 -5.753732 2.987576 -4.139237 0.000000 0.000000 0.000000 0.000000 0.000000 0.000000 -0.048199 -0.223213 28.772739 -0.919350 0.308559 -0.261510 -15.455398 52.527792 51.387000 0.000000 0.000000 0.000000 -0.048199 -0.223213 28.772739 -0.477755 0.923763 -0.220692 2.308055 0.063661 -2.981004 0.000000 0.000000 0.000000
14.928241 73.320430 371.676659 0.153140 0.193677 -29.170486 -0.039318 -0.243755 29.170143 -0.000000 0.000000 0.000000 -0.726857 0.670910 -0.148234 0.000000 0.000000 0.000000 0.511428 -0.807466 0.045086 1.883224 3.575805 -3.205255 3.067476 -6.150427 13.825619 11.311929 -8.300386 22.252196 0.000000 0.000000 0.000000 0.000000 0.000000 0.000000 0.392285 -1.112169 -0.146486 -1.827803 3.506404 -2.462378 4.719920 -7.771593 -1.485014 -2.479770 2.152833 -1.031930 0.000000 0.000000 0.000000 0.000000 0.000000 0.000000 -0.039318 -0.243755 29.170143 -1.217818 0.485156 -0.349740 -12.036381 51.209910 48.149356 0.000000 0.000000 0.000000 -0.039318 -0.243755 29.170143 -0.000000 0.000000 0.000000 6.568749 5.819812 -10.841881 0.000000 0.000000 0.000000
14.931177 73.280902 371.686503 0.138156 0.209078 -29.550133 -0.017071 -0.250018 29.549844 -0.000000 0.000000 0.000000 -0.739676 0.796417 -0.171348 0.000000 0.000000 0.000000 -0.000000 0.000000 0.000000 1.983601 2.823920 -3.564611 3.099106 -5.956172 13.466086 10.745059 -8.010764 21.391282 0.000000 0.000000 0.000000 0.000000 0.000000 0.000000 0.502644 -1.487930 -0.192602 -3.295897 4.953942 -4.704045 6.222355 -9.522449 -0.728111 -0.530386 2.020173 2.501788 0.000000 0.000000 0.000000 0.000000 0.000000 0.000000 -0.017071 -0.250018 29.549844 -1.278016 0.568395 -0.370130 -9.967629 48.977548 44.662213 0.000000 0.000000 0.000000 -0.017071 -0.250018 29.549844 -0.000000 0.000000 0.000000 7.822858 7.048075 -12.733399 0.000000 0.000000 0.000000
14.923704 73.226558 371.674033 0.119337 0.248200 -30.043381 0.020959 -0.274600 30.043173 -0.000000 0.000000 0.000000 -0.799996 0.963146 -0.203226 0.000000 0.000000 0.000000 -0.000000 0.000000 0.000000 1.465689 2.807445 -3.944383 2.782360 -5.392421 12.070817 10.020704 -7.798001 23.069367 0.000000 0.000000 0.000000 0.000000 0.000000 0.000000 0.905990 -2.043133 -0.276603 -3.076759 4.959091 -3.487628 9.151708 -10.222758 1.096571 -4.196718 2.552338 -1.213018 0.000000 0.000000 0.000000 0.000000 0.000000 0.000000 0.020959 -0.274600 30.043173 -0.744125 0.270557 -0.213310 -11.349407 52.240376 48.192337 0.000000 0.000000 0.000000 0.020959 -0.274600 30.043173 -0.000000 0.000000 0.000000 13.075021 11.485010 -20.318062 0.000000 0.000000 0.000000
14.902021 73.175519 371.652347 0.056470 0.304528 -30.410157 0.105447 -0.291216 30.410275 -0.000000 0.000000 0.000000 -0.773131 1.056664 -0.219377 0.000000 0.000000 0.000000 -0.000000 0.000000 0.000000 0.586157 2.486212 -4.030058 2.861983 -5.015272 11.413751 10.863119 -7.857077 24.477396 0.000000 0.000000 0.000000 0.000000 0.000000 0.000000 1.360387 -2.581200 -0.358528 -3.320235 5.525480 -3.018364 11.179743 -11.942132 1.275273 -5.722976 3.670114 -0.592237 0.000000 0.000000 0.000000 0.000000 0.000000 0.000000 0.105447 -0.291216 30.410275 -0.000000 0.000000 0.000000 -9.305574 47.958240 41.647117 0.000000 0.000000 0.000000 0.105447 -0.291216 30.410275 0.831707 -0.044627 0.194862 10.895588 10.056695 -18.652276 0.000000 0.000000 0.000000
14.883887 73.164881 371.631341 0.000123 0.352671 -30.629462 0.179576 -0.303528 30.629937 -0.000000 0.000000 0.000000 -0.647694 1.188827 -0.240003 0.000000 0.000000 0.000000 -0.032108 1.010201 -0.178503 -0.248334 0.912203 -3.493164 1.647209 -4.157240 8.719401 13.754755 -8.152986 26.820054 0.000000 0.000000 0.000000 0.000000 0.000000 0.000000 1.698270 -2.715653 -0.393003 -2.842402 5.099213 -1.607968 12.605987 -13.403066 0.567706 -9.952131 4.962105 -5.562822 0.000000 0.000000 0.000000 0.000000 0.000000 0.000000 0.179576 -0.303528 30.629937 -0.000000 0.000000 0.000000 -12.759124 49.565536 45.293391 0.000000 0.000000 0.000000 0.179576 -0.303528 30.629937 1.026557 -0.020904 0.236077 7.673976 6.769442 -14.444496 0.000000 0.000000 0.000000
14.872003 73.181332 371.614303 -0.069891 0.399883 -30.738404 0.264463 -0.307979 30.739358 -0.000000 0.000000 0.000000 -0.401383 1.279268 -0.250239 0.000000 0.000000 0.000000 -0.263939 1.335446 -0.186774 -0.545196 0.816701 -4.313238 1.075386 -7.315906 13.506609 15.531449 -6.808798 23.314403 0.000000 0.000000 0.000000 0.000000 0.000000 0.000000 2.199747 -3.668008 -0.506545 -2.847031 5.738000 -0.579438 12.999700 -14.215070 -0.168313 -11.966159 6.118052 -6.911787 0.000000 0.000000 0.000000 0.000000 0.000000 0.000000 0.264463 -0.307979 30.739358 -0.000000 0.000000 0.000000 -15.282619 49.357735 46.596719 0.000000 0.000000 0.000000 0.264463 -0.307979 30.739358 1.160163 -0.477639 0.328165 7.903890 7.356930 -15.139251 0.000000 0.000000 0.000000
14.887925 73.224491 371.605209 -0.100347 0.438297 -30.770974 0.310461 -0.325252 30.772239 -0.000000 0.000000 0.000000 -0.231687 1.259687 -0.242317 0.000000 0.000000 0.000000 -0.485390 1.563434 -0.178655 -0.297966 0.903551 -4.863785 0.932991 -10.038826 17.707821 17.991864 -6.550070 21.952364 0.000000 0.000000 0.000000 0.000000 0.000000 0.000000 2.790448 -4.888070 -0.637565 -3.175402 6.746682 0.136564 11.797043 -13.931565 -1.348082 -13.069329 6.301639 -10.139650 0.000000 0.000000 0.000000 0.000000 0.000000 0.000000 0.310461 -0.325252 30.772239 -0.000000 0.000000 0.000000 -14.913109 44.863873 41.484574 0.000000 0.000000 0.000000 -0.468223 -0.041123 30.659773 1.493118 -1.148526 0.411366 5.331259 7.639437 -10.420901 0.000000 0.000000 0.000000
